<svg xmlns="http://www.w3.org/2000/svg" xmlns:xlink="http://www.w3.org/1999/xlink" width="1920" zoomAndPan="magnify" viewBox="0 0 1440 809.999993" height="1080" preserveAspectRatio="xMidYMid meet" version="1.0"><defs><clipPath id="0d296ca67c"><path d="M 70.289062 116.300781 L 1369.164062 116.300781 L 1369.164062 692.707031 L 70.289062 692.707031 Z M 70.289062 116.300781 " clip-rule="nonzero"/></clipPath></defs><g clip-path="url(#0d296ca67c)"><path fill="#1a1a1a" d="M 639.550781 137.191406 L 639.550781 129.15625 C 639.550781 122.054688 645.308594 116.300781 652.410156 116.300781 C 660.390625 116.300781 673.917969 116.300781 681.894531 116.300781 C 689 116.300781 694.753906 122.054688 694.753906 129.15625 L 694.753906 137.191406 L 744.695312 137.191406 L 744.695312 129.15625 C 744.695312 122.054688 750.453125 116.300781 757.554688 116.300781 C 765.535156 116.300781 779.058594 116.300781 787.039062 116.300781 C 794.140625 116.300781 799.898438 122.054688 799.898438 129.15625 L 799.898438 137.191406 L 1130.949219 137.191406 C 1139.070312 137.191406 1145.988281 142.339844 1148.617188 149.546875 L 1200.398438 149.546875 C 1227.003906 149.546875 1259.617188 151.417969 1289.722656 171.867188 C 1328.078125 197.925781 1369.164062 260.574219 1369.164062 423.433594 C 1369.164062 539.535156 1347.113281 606.519531 1322.28125 642.546875 C 1297.613281 678.347656 1267.84375 690.933594 1242.199219 692.539062 C 1209.761719 694.574219 1180.859375 678.535156 1164.472656 655.390625 C 1150.441406 635.574219 1155.152344 608.101562 1174.96875 594.078125 C 1194.753906 580.082031 1222.167969 584.738281 1236.230469 604.449219 C 1236.367188 604.453125 1236.597656 604.457031 1236.75 604.433594 C 1237.074219 604.386719 1237.402344 604.296875 1237.746094 604.179688 C 1239.449219 603.601562 1241.242188 602.394531 1243.011719 600.738281 C 1251.984375 592.355469 1259.644531 579.15625 1265.785156 560.105469 C 1275.484375 530 1281.148438 485.835938 1281.148438 423.433594 C 1281.148438 360.699219 1275.386719 316.71875 1265.394531 285.976562 C 1258.480469 264.683594 1250.480469 251.578125 1240.246094 244.625 C 1227.011719 235.632812 1212.09375 237.519531 1200.398438 237.519531 L 1027.652344 237.519531 L 996.097656 256.300781 C 982.503906 264.398438 967.285156 268.628906 951.816406 268.628906 L 799.898438 268.628906 L 799.898438 276.660156 C 799.898438 283.761719 794.140625 289.515625 787.039062 289.515625 L 757.554688 289.515625 L 757.554688 351.09375 C 757.554688 358.191406 751.796875 363.949219 744.695312 363.949219 C 732.644531 363.949219 706.804688 363.949219 694.753906 363.949219 C 687.652344 363.949219 681.894531 358.191406 681.894531 351.09375 L 681.894531 289.515625 L 652.410156 289.515625 C 645.308594 289.515625 639.550781 283.761719 639.550781 276.660156 L 639.550781 268.628906 L 513.640625 268.628906 C 499.863281 268.628906 486.257812 265.269531 473.808594 258.785156 L 432.980469 237.519531 L 239.054688 237.519531 C 227.359375 237.519531 212.4375 235.632812 199.203125 244.625 C 188.96875 251.578125 180.972656 264.683594 174.050781 285.976562 C 164.0625 316.71875 158.300781 360.699219 158.300781 423.433594 C 158.300781 485.835938 163.964844 530 173.667969 560.105469 C 179.804688 579.15625 187.46875 592.355469 196.4375 600.738281 C 198.210938 602.394531 200.003906 603.601562 201.707031 604.179688 C 202.046875 604.296875 202.378906 604.386719 202.699219 604.433594 C 202.851562 604.457031 203.085938 604.453125 203.222656 604.449219 C 217.28125 584.738281 244.695312 580.082031 264.476562 594.078125 C 284.300781 608.101562 289.007812 635.574219 274.976562 655.390625 C 258.589844 678.535156 229.691406 694.574219 197.25 692.539062 C 171.605469 690.933594 141.835938 678.347656 117.167969 642.546875 C 92.335938 606.519531 70.289062 539.535156 70.289062 423.433594 C 70.289062 260.574219 111.371094 197.925781 149.726562 171.867188 C 179.828125 151.417969 212.449219 149.546875 239.054688 149.546875 L 295.820312 149.546875 C 298.449219 142.339844 305.363281 137.191406 313.484375 137.191406 Z M 799.898438 150.042969 L 1130.949219 150.042969 C 1134.21875 150.042969 1136.871094 152.6875 1136.878906 155.953125 C 1136.894531 159.167969 1140.089844 162.402344 1143.308594 162.402344 C 1200.398438 162.402344 1200.398438 162.402344 1200.398438 162.402344 C 1224.820312 162.402344 1254.859375 163.726562 1282.496094 182.5 C 1319.128906 207.390625 1356.300781 267.871094 1356.300781 423.433594 C 1356.300781 535.59375 1335.679688 600.449219 1311.691406 635.257812 C 1289.957031 666.796875 1263.984375 678.296875 1241.394531 679.710938 C 1213.671875 681.449219 1188.976562 667.742188 1174.96875 647.964844 C 1165.039062 633.941406 1168.371094 614.496094 1182.402344 604.570312 C 1196.4375 594.644531 1215.886719 597.972656 1225.816406 611.996094 C 1228.328125 615.539062 1231.992188 617.324219 1236.351562 617.320312 C 1240.859375 617.316406 1246.550781 615.03125 1251.792969 610.128906 C 1262.007812 600.585938 1271.039062 585.730469 1278.027344 564.046875 C 1288.011719 533.066406 1294.011719 487.644531 1294.011719 423.433594 C 1294.011719 358.875 1287.90625 313.640625 1277.628906 282.007812 C 1269.523438 257.0625 1259.46875 242.136719 1247.476562 233.992188 C 1231.785156 223.332031 1214.261719 224.664062 1200.398438 224.664062 L 1025.882812 224.664062 C 1024.730469 224.664062 1023.589844 224.976562 1022.59375 225.570312 L 989.523438 245.257812 C 977.9375 252.152344 964.980469 255.773438 951.816406 255.773438 L 799.898438 255.773438 Z M 639.550781 150.042969 L 639.550781 255.773438 L 513.640625 255.773438 C 501.917969 255.773438 490.34375 252.902344 479.75 247.386719 L 437.527344 225.390625 C 436.609375 224.914062 435.589844 224.664062 434.554688 224.664062 L 239.054688 224.664062 C 225.183594 224.664062 207.664062 223.332031 191.972656 233.992188 C 179.984375 242.136719 169.925781 257.0625 161.820312 282.007812 C 151.542969 313.640625 145.441406 358.875 145.441406 423.433594 C 145.441406 487.644531 151.441406 533.066406 161.425781 564.046875 C 168.414062 585.730469 177.445312 600.585938 187.652344 610.128906 C 192.898438 615.03125 198.585938 617.316406 203.097656 617.320312 C 207.457031 617.324219 211.125 615.539062 213.632812 611.996094 C 223.5625 597.972656 243.015625 594.644531 257.046875 604.570312 C 271.078125 614.496094 274.410156 633.941406 264.480469 647.964844 C 250.476562 667.742188 225.777344 681.449219 198.058594 679.710938 C 175.464844 678.296875 149.492188 666.796875 127.757812 635.257812 C 103.769531 600.449219 83.148438 535.59375 83.148438 423.433594 C 83.148438 267.871094 120.320312 207.390625 156.957031 182.5 C 184.589844 163.726562 214.628906 162.402344 239.054688 162.402344 L 301.125 162.402344 C 301.132812 162.398438 307.554688 162.019531 307.554688 155.972656 C 307.554688 152.699219 310.207031 150.042969 313.484375 150.042969 Z M 258.121094 625.164062 C 256.652344 620.933594 253.964844 617.121094 250.1875 614.328125 C 242.253906 608.464844 231.90625 608.777344 224.398438 614.328125 C 216.890625 619.875 235.03125 619.113281 242.539062 624.664062 C 247.425781 628.273438 250.800781 634.507812 254.152344 633.34375 C 257.503906 632.179688 259.28125 628.515625 258.121094 625.164062 Z M 1181.328125 625.164062 C 1182.800781 620.933594 1185.488281 617.121094 1189.265625 614.328125 C 1197.191406 608.464844 1207.542969 608.777344 1215.050781 614.328125 C 1222.558594 619.875 1204.421875 619.113281 1196.914062 624.664062 C 1192.019531 628.273438 1188.652344 634.507812 1185.296875 633.34375 C 1181.941406 632.179688 1180.164062 628.515625 1181.328125 625.164062 Z M 117.933594 265.101562 C 105.859375 295.753906 97.410156 340.867188 97.410156 407.746094 C 97.410156 417.738281 97.609375 427.261719 97.988281 436.335938 C 98.136719 439.878906 101.132812 442.636719 104.679688 442.488281 C 108.226562 442.339844 110.984375 439.34375 110.835938 435.800781 C 110.464844 426.898438 110.269531 417.550781 110.269531 407.746094 C 110.269531 343.089844 118.226562 299.445312 129.902344 269.8125 C 131.203125 266.511719 129.574219 262.777344 126.273438 261.476562 C 122.972656 260.175781 119.234375 261.800781 117.933594 265.101562 Z M 1321.519531 265.101562 C 1333.589844 295.753906 1342.039062 340.867188 1342.039062 407.746094 C 1342.039062 417.738281 1341.839844 427.261719 1341.464844 436.335938 C 1341.3125 439.878906 1338.316406 442.636719 1334.769531 442.488281 C 1331.222656 442.339844 1328.46875 439.34375 1328.609375 435.800781 C 1328.984375 426.898438 1329.183594 417.550781 1329.183594 407.746094 C 1329.183594 343.089844 1321.222656 299.445312 1309.550781 269.8125 C 1308.25 266.511719 1309.875 262.777344 1313.175781 261.476562 C 1316.476562 260.175781 1320.210938 261.800781 1321.519531 265.101562 Z M 681.894531 129.15625 C 681.894531 135.292969 681.894531 143.617188 681.894531 143.617188 C 681.894531 147.167969 684.773438 150.042969 688.324219 150.042969 L 751.125 150.042969 C 754.675781 150.042969 757.554688 147.167969 757.554688 143.617188 L 757.554688 129.15625 L 787.039062 129.15625 L 787.039062 276.660156 C 787.039062 273.113281 783.488281 276.660156 787.039062 276.660156 C 775.195312 276.660156 751.125 276.660156 751.125 276.660156 C 747.574219 276.660156 744.695312 279.539062 744.695312 283.089844 L 744.695312 351.09375 L 694.753906 351.09375 C 694.753906 333.027344 694.753906 283.089844 694.753906 283.089844 C 694.753906 279.539062 691.878906 276.660156 688.324219 276.660156 C 688.324219 276.660156 664.253906 276.660156 652.410156 276.660156 L 652.410156 129.15625 L 681.894531 129.15625 " fill-opacity="1" fill-rule="evenodd"/></g></svg>