<svg xmlns="http://www.w3.org/2000/svg" xmlns:xlink="http://www.w3.org/1999/xlink" width="1920" zoomAndPan="magnify" viewBox="0 0 1440 809.999993" height="1080" preserveAspectRatio="xMidYMid meet" version="1.0"><defs><clipPath id="50b83e8639"><path d="M 129 292 L 1311.878906 292 L 1311.878906 757.613281 L 129 757.613281 Z M 129 292 " clip-rule="nonzero"/></clipPath><clipPath id="910c06de76"><path d="M 399 51.742188 L 1168 51.742188 L 1168 626 L 399 626 Z M 399 51.742188 " clip-rule="nonzero"/></clipPath></defs><path fill="#313444" d="M 365.890625 518.363281 L 568.902344 518.363281 L 568.902344 522.851562 L 372.214844 522.851562 L 554.460938 598.660156 L 552.738281 602.808594 L 363.832031 524.230469 L 506.402344 666.847656 L 503.226562 670.023438 L 365.867188 532.621094 L 439.757812 711.761719 L 435.609375 713.476562 L 362.007812 535.035156 L 362.007812 730.675781 L 357.519531 730.675781 L 357.519531 533.402344 L 281.9375 715.238281 L 277.792969 713.511719 L 356.535156 524.070312 L 210.027344 670.628906 L 206.855469 667.453125 L 348.875 525.386719 L 164.648438 601.429688 L 162.9375 597.277344 L 343.242188 522.855469 L 152.347656 522.855469 L 152.347656 518.367188 L 349.722656 518.367188 L 168.109375 442.820312 L 169.832031 438.675781 L 344.640625 511.382812 L 208.679688 375.375 L 211.855469 372.203125 L 353.136719 513.535156 L 276.726562 328.28125 L 280.875 326.566406 L 357.515625 512.378906 L 357.515625 313.984375 L 362.007812 313.984375 L 362.007812 510.910156 L 437.722656 328.757812 L 441.867188 330.480469 L 369.375 504.875 L 501.398438 372.804688 L 504.574219 375.984375 L 367.953125 512.652344 L 547.996094 438.339844 L 549.707031 442.484375 Z M 1295.5 524.992188 L 1092.488281 524.992188 L 1276.308594 449.117188 L 1274.597656 444.964844 L 1094.554688 519.28125 L 1231.171875 382.613281 L 1228 379.4375 L 1095.976562 511.503906 L 1168.464844 337.113281 L 1164.320312 335.386719 L 1088.605469 517.539062 L 1088.605469 320.609375 L 1084.113281 320.609375 L 1084.113281 519.007812 L 1007.476562 333.195312 L 1003.324219 334.910156 L 1079.738281 520.164062 L 938.453125 378.832031 L 935.277344 382.007812 L 1071.238281 518.011719 L 896.433594 445.300781 L 894.707031 449.445312 L 1076.320312 524.992188 L 878.945312 524.992188 L 878.945312 529.484375 L 1069.832031 529.484375 L 889.53125 603.902344 L 891.246094 608.058594 L 1075.46875 532.011719 L 933.449219 674.082031 L 936.625 677.261719 L 1083.132812 530.703125 L 1004.386719 720.144531 L 1008.53125 721.867188 L 1084.113281 540.03125 L 1084.113281 737.304688 L 1088.605469 737.304688 L 1088.605469 541.667969 L 1162.207031 720.101562 L 1166.355469 718.390625 L 1092.464844 539.25 L 1229.824219 676.652344 L 1232.996094 673.476562 L 1090.429688 530.859375 L 1279.332031 609.433594 L 1281.054688 605.285156 L 1098.808594 529.480469 L 1295.5 529.480469 Z M 1295.5 524.992188 " fill-opacity="1" fill-rule="nonzero"/><g clip-path="url(#50b83e8639)"><path fill="#484c70" d="M 362.007812 292.417969 C 233.792969 292.417969 129.484375 396.765625 129.484375 525.023438 C 129.484375 653.285156 233.792969 757.632812 362.007812 757.632812 C 490.222656 757.632812 594.535156 653.285156 594.535156 525.023438 C 594.535156 396.765625 490.226562 292.417969 362.007812 292.417969 Z M 362.007812 714.605469 C 257.511719 714.605469 172.492188 629.5625 172.492188 525.023438 C 172.492188 420.488281 257.507812 335.445312 362.007812 335.445312 C 466.507812 335.445312 551.523438 420.488281 551.523438 525.023438 C 551.523438 629.558594 466.507812 714.605469 362.007812 714.605469 Z M 1078.5625 292.417969 C 950.347656 292.417969 846.039062 396.765625 846.039062 525.023438 C 846.039062 653.285156 950.347656 757.632812 1078.5625 757.632812 C 1206.777344 757.632812 1311.089844 653.285156 1311.089844 525.023438 C 1311.089844 396.765625 1206.777344 292.417969 1078.5625 292.417969 Z M 1078.5625 714.605469 C 974.0625 714.605469 889.046875 629.5625 889.046875 525.023438 C 889.046875 420.488281 974.0625 335.445312 1078.5625 335.445312 C 1183.0625 335.445312 1268.078125 420.488281 1268.078125 525.023438 C 1268.078125 629.558594 1183.0625 714.605469 1078.5625 714.605469 Z M 1078.5625 714.605469 " fill-opacity="1" fill-rule="nonzero"/></g><path fill="#313444" d="M 1133.859375 241.472656 C 1127.074219 257.433594 1120.449219 243.019531 1120.449219 243.019531 L 1107.191406 164.265625 L 1081.570312 169.574219 C 1086.449219 191.582031 1073.90625 217.105469 1052.449219 235.253906 C 1024.75 258.671875 966.375 253.207031 955.441406 242.929688 C 944.503906 232.652344 958.203125 219.109375 958.203125 219.109375 C 958.203125 219.109375 1025.449219 240.527344 1048.886719 200.664062 C 1072.324219 160.796875 1028.085938 154.402344 1028.085938 154.402344 C 1028.0625 155.179688 1028.035156 155.816406 1028 156.253906 C 1027.652344 160.628906 1021.960938 161.761719 1021.960938 161.761719 C 1021.960938 161.761719 985.117188 162.359375 974.480469 162.011719 C 963.847656 161.660156 964.550781 159.179688 964.550781 159.179688 L 962.835938 129.910156 C 962.613281 126.195312 969.085938 126.023438 969.085938 126.023438 C 969.085938 126.023438 1006.363281 125.472656 1017.527344 125.527344 C 1028.699219 125.578125 1027.871094 128.476562 1027.871094 128.476562 C 1027.871094 128.476562 1027.878906 128.792969 1027.886719 129.34375 C 1038.035156 130.148438 1057.273438 133.933594 1071.566406 150.222656 L 1103.679688 143.386719 C 1112.941406 131.269531 1123.46875 141.425781 1123.46875 141.425781 Z M 1133.859375 241.472656 " fill-opacity="1" fill-rule="nonzero"/><path fill="#e04632" d="M 1073.804688 542.234375 L 962.785156 250.417969 L 695.054688 564.84375 L 674.878906 547.652344 L 948.441406 226.378906 L 588.972656 273.148438 L 648.792969 522.777344 L 623.023438 528.957031 L 577.171875 337.625 L 381.734375 514.214844 L 643.253906 546.355469 L 640.003906 572.835938 L 357.519531 538.117188 L 358.070312 533.621094 L 341.175781 514.917969 L 570.089844 308.074219 L 523.261719 112.667969 L 549.035156 106.488281 L 580.503906 237.800781 L 940.183594 191.007812 L 934.988281 177.351562 C 934.988281 177.351562 920 149.835938 943.800781 142.953125 C 967.597656 136.066406 977.347656 132.914062 977.347656 132.914062 L 984.804688 156.433594 L 961.863281 164.175781 C 961.863281 164.175781 959.214844 166.019531 961.808594 172.851562 L 1098.730469 532.746094 Z M 1073.804688 542.234375 " fill-opacity="1" fill-rule="nonzero"/><path fill="#484c70" d="M 685.320312 511.671875 C 685 515.71875 681.453125 518.742188 677.40625 518.417969 L 367.957031 493.875 C 363.910156 493.546875 360.886719 490.007812 361.207031 485.957031 C 361.527344 481.902344 365.070312 478.878906 369.121094 479.203125 L 678.570312 503.753906 C 682.617188 504.078125 685.640625 507.617188 685.320312 511.671875 Z M 654.980469 633 L 358.210938 541.917969 C 354.328125 540.730469 350.214844 542.910156 349.023438 546.792969 C 347.832031 550.679688 350.015625 554.796875 353.898438 555.988281 L 650.667969 647.066406 C 654.550781 648.257812 658.664062 646.074219 659.855469 642.195312 C 661.046875 638.304688 658.863281 634.191406 654.980469 633 Z M 654.980469 633 " fill-opacity="1" fill-rule="nonzero"/><path fill="#484c70" d="M 1128.75 521.78125 C 1128.75 549.96875 1105.882812 572.828125 1077.707031 572.828125 C 1049.523438 572.828125 1026.660156 549.96875 1026.660156 521.78125 C 1026.660156 520.078125 1026.746094 518.375 1026.902344 516.703125 C 1029.449219 490.890625 1051.230469 470.722656 1077.707031 470.722656 C 1104.179688 470.722656 1125.960938 490.890625 1128.507812 516.703125 C 1128.664062 518.375 1128.75 520.078125 1128.75 521.78125 Z M 362.007812 470.082031 C 333.929688 470.082031 311.136719 492.765625 310.964844 520.816406 L 310.964844 521.125 C 310.964844 549.332031 333.828125 572.1875 362.007812 572.1875 C 390.1875 572.1875 413.054688 549.332031 413.054688 521.125 C 413.054688 517.992188 412.777344 514.929688 412.226562 511.957031 C 407.910156 488.132812 387.058594 470.082031 362.007812 470.082031 Z M 362.007812 470.082031 " fill-opacity="1" fill-rule="nonzero"/><path fill="#9dedeb" d="M 412.226562 511.957031 C 412.054688 540.007812 389.261719 562.691406 361.183594 562.691406 C 336.136719 562.691406 315.28125 544.636719 310.964844 520.820312 C 311.136719 492.765625 333.929688 470.085938 362.007812 470.085938 C 387.058594 470.082031 407.910156 488.132812 412.226562 511.957031 Z M 1077.707031 470.722656 C 1051.230469 470.722656 1029.449219 490.890625 1026.902344 516.703125 C 1029.449219 542.519531 1051.230469 562.691406 1077.707031 562.691406 C 1104.179688 562.691406 1125.960938 542.519531 1128.507812 516.703125 C 1125.960938 490.890625 1104.179688 470.722656 1077.707031 470.722656 Z M 665.949219 505.820312 C 626.867188 505.820312 595.179688 537.515625 595.179688 576.613281 C 595.179688 615.710938 626.863281 647.40625 665.949219 647.40625 C 705.035156 647.40625 736.722656 615.710938 736.722656 576.613281 C 736.722656 537.515625 705.035156 505.820312 665.949219 505.820312 Z M 665.949219 505.820312 " fill-opacity="1" fill-rule="nonzero"/><path fill="#484c70" d="M 665.441406 502.183594 C 624.253906 502.183594 590.875 535.566406 590.875 576.75 C 590.875 617.933594 624.253906 651.324219 665.441406 651.324219 C 706.609375 651.324219 739.988281 617.933594 739.988281 576.75 C 739.988281 535.566406 706.609375 502.183594 665.441406 502.183594 Z M 665.441406 638.417969 C 631.375 638.417969 603.78125 610.808594 603.78125 576.75 C 603.78125 542.691406 631.375 515.089844 665.441406 515.089844 C 699.488281 515.089844 727.082031 542.6875 727.082031 576.75 C 727.082031 610.804688 699.488281 638.417969 665.441406 638.417969 Z M 665.441406 638.417969 " fill-opacity="1" fill-rule="nonzero"/><path fill="#e04632" d="M 783.191406 586.71875 C 782.453125 593.898438 776.027344 599.121094 768.851562 598.378906 L 674.488281 588.621094 C 667.308594 587.878906 662.085938 581.457031 662.832031 574.273438 C 663.570312 567.09375 669.996094 561.871094 677.171875 562.617188 L 771.535156 572.371094 C 778.714844 573.113281 783.933594 579.539062 783.191406 586.71875 Z M 783.191406 586.71875 " fill-opacity="1" fill-rule="nonzero"/><g clip-path="url(#910c06de76)"><path fill="#484c70" d="M 815.996094 558.523438 C 817.574219 561.503906 818.539062 565.445312 818.421875 570.640625 L 763.777344 625.300781 C 763.214844 625.40625 762.644531 625.441406 762.0625 625.492188 L 761.714844 625.128906 C 757.261719 624.855469 753.816406 623.824219 751.167969 622.34375 C 743.273438 617.9375 742.410156 609.609375 742.460938 605.890625 L 742.410156 605.824219 C 742.515625 605.167969 742.621094 604.511719 742.722656 603.84375 L 750.117188 596.445312 L 674.488281 588.625 C 674.488281 588.625 659.714844 586.820312 662.835938 574.277344 C 662.835938 574.277344 671.6875 584.105469 697.492188 584.105469 L 755.855469 590.707031 L 797.140625 549.40625 C 797.140625 549.402344 810.402344 547.960938 815.996094 558.523438 Z M 558.136719 113.695312 L 554.339844 97.863281 C 585.59375 89.6875 611.78125 81.429688 611.78125 81.429688 C 611.78125 81.429688 621.242188 77.125 618.660156 68.089844 C 618.660156 68.089844 619.089844 56.902344 592.425781 58.625 C 565.757812 60.347656 440.597656 51.742188 440.597656 51.742188 C 440.597656 51.742188 423.824219 54.011719 428.125 64.648438 C 428.125 64.648438 444.039062 118.859375 491.78125 111.546875 C 498.378906 110.539062 505.449219 109.226562 512.726562 107.726562 L 516.5625 122.589844 C 516.5625 122.589844 519.628906 122.933594 524.613281 122.703125 L 569.699219 308.789062 C 560.394531 322.265625 560.136719 333.609375 561.589844 340.773438 L 561.582031 340.773438 L 399.355469 486.980469 L 404.5625 493.589844 L 413.050781 485.921875 L 413.050781 488.300781 L 577.382812 340.507812 L 621.289062 521.710938 L 625.613281 518.449219 L 531.773438 122.046875 C 539.199219 121.035156 548.578125 118.738281 558.136719 113.695312 Z M 1130.175781 99.929688 C 1130.175781 99.929688 1117.273438 93.042969 1111.683594 107.242188 L 1082.671875 122.628906 C 1064.464844 110.878906 1044.925781 112.519531 1034.945312 114.527344 C 1034.789062 114.003906 1034.695312 113.695312 1034.695312 113.695312 C 1034.695312 113.695312 1034.695312 110.6875 1023.941406 113.695312 C 1013.1875 116.707031 977.488281 127.464844 977.488281 127.464844 C 977.488281 127.464844 971.3125 129.402344 972.542969 132.914062 L 982.222656 160.59375 C 982.222656 160.59375 982.222656 163.175781 992.546875 160.59375 C 1002.867188 158.011719 1038.136719 147.328125 1038.136719 147.328125 C 1038.136719 147.328125 1043.292969 144.675781 1042.4375 140.371094 C 1042.351562 139.941406 1042.199219 139.324219 1042.007812 138.570312 C 1042.007812 138.570312 1086.308594 132.585938 1074.691406 177.351562 C 1063.078125 222.117188 992.546875 219.96875 992.546875 219.96875 C 992.546875 219.96875 983.082031 236.746094 996.414062 243.628906 C 1009.746094 250.515625 1067.378906 239.757812 1087.597656 209.640625 C 1103.257812 186.300781 1108.324219 158.316406 1097.605469 138.488281 L 1120.785156 126.359375 L 1155.128906 198.453125 C 1155.128906 198.453125 1165.449219 210.5 1167.597656 193.289062 Z M 937.488281 145.777344 C 937.488281 145.777344 919.28125 150.574219 940.183594 191.011719 L 952.390625 222.394531 L 952.175781 222.527344 L 950.042969 216.929688 L 614.640625 260.25 L 588.621094 236.75 L 580.503906 237.804688 L 586.746094 263.855469 L 588.972656 273.148438 L 623.890625 268.609375 L 948.4375 226.378906 L 919.050781 260.890625 C 919.050781 260.890625 919.980469 271.148438 929.210938 276.269531 L 712.976562 528.953125 L 724.082031 530.746094 L 943.507812 273.164062 L 961.789062 252.085938 L 1049.816406 479.175781 L 1055.648438 475.71875 L 937.488281 170.488281 C 937.488281 170.488281 931.46875 151.609375 937.488281 145.777344 Z M 406.652344 546.523438 L 595.179688 570.335938 L 597.15625 560.015625 L 410.429688 537.917969 Z M 406.652344 546.523438 " fill-opacity="1" fill-rule="nonzero"/></g><path fill="#313444" d="M 515.152344 117.140625 L 512.726562 107.722656 L 554.339844 97.863281 L 555.519531 102.792969 C 555.519531 102.792969 526.078125 117.714844 515.152344 117.140625 Z M 539.429688 374.640625 L 507.730469 403.148438 L 511.683594 408.277344 L 549.820312 388.894531 C 549.820312 386.433594 539.429688 374.640625 539.429688 374.640625 Z M 525.738281 622.339844 L 567.886719 634.015625 L 573.03125 623.242188 L 532.058594 610.667969 Z M 544.660156 578.65625 L 586.03125 583.816406 L 589.964844 570.335938 L 547.847656 564.359375 Z M 551.84375 518.445312 L 593.980469 516.988281 L 593.980469 511.640625 L 551.84375 508.460938 Z M 985.203125 312.476562 L 965.019531 323.230469 L 989.289062 357.21875 L 1000.597656 352.195312 Z M 780.242188 593.71875 L 778.382812 595.546875 L 751.167969 622.339844 C 753.816406 623.820312 757.261719 624.855469 761.714844 625.128906 L 762.058594 625.488281 C 762.644531 625.4375 763.210938 625.40625 763.777344 625.300781 L 818.421875 570.640625 C 818.542969 565.441406 817.574219 561.503906 815.996094 558.523438 Z M 780.242188 593.71875 " fill-opacity="1" fill-rule="nonzero"/></svg>